<mxfile
  host="Electron" 
  agent="Mozilla/5.0 (Macintosh; Intel Mac OS X 10_15_7) AppleWebKit/537.36 (KHTML, like Gecko) draw.io/25.0.2 Chrome/128.0.6613.186 Electron/32.2.5 Safari/537.36" 
  version="25.0.2"
  >
  <diagram
    name="-"
    >
    <mxGraphModel
      grid="1" 
      gridSize="10" 
      guides="1" 
      tooltips="1" 
      connect="1" 
      arrows="1" 
      fold="1" 
      page="1" 
      pageScale="1" 
      pageWidth="1" 
      pageHeight="1" 
      math="0" 
      shadow="0"
      >
      <root>
        <mxCell
          id="page"
          />
        <mxCell
          id="root" 
          parent="page"
          />
        <mxCell
          style="verticalAlign=top;aspect=fixed;align=center;spacingLeft=5;spacingRight=5;spacingBottom=5;strokeColor=none;" 
          id="shape_" 
          parent="root" 
          value=" " 
          vertex="1"
          >
          <mxGeometry
            as="geometry" 
            width="320" 
            height="244" 
            x="0" 
            y="0"
            />
          </mxCell>
        <mxCell
          style="dashed=0;shape=rect;fillColor=#ffffff;strokeColor=#eeeeee;shadow=1;fontColor=#000000;fontSize=24;fontStyle=0;verticalAlign=top;spacingBottom=0;spacingLeft=16;spacingTop=15;align=left;" 
          id="card10_" 
          parent="shape_" 
          value=" " 
          vertex="1"
          >
          <mxGeometry
            width="300" 
            height="224" 
            as="geometry" 
            x="10" 
            y="10"
            />
          </mxCell>
        </root>
      </mxGraphModel>
    </diagram>
  </mxfile>